PathFileType	4	(X/Y/Z)	Run_400 01
DataRate	CameraRate	NumFrames	NumMarkers	Units	OrigDataRate	OrigDataStartFrame	OrigNumFrames
120	120	8	42	mm	120	174	128
Frame#	Time	LASI			RASI			LPSI			RPSI			RTH1			RTH2			RTH3			LTH1			LTH2			LTH3			RTB1			RTB2			RTB3			LTB1			LTB2			LTB3			RCAL			RTOE			RMT5			LCAL			LTOE			LMT5			LACR			RACR			CLAV			C7			RUA1			RUA2			RUA3			RLEL			RMEL			LUA1			LUA2			LUA3			LLEL			LMEL			RFAsuperior			RFAradius			RFAulna			LFAsuperior			LFAradius			LFAulna		
		X1	Y1	Z1	X2	Y2	Z2	X3	Y3	Z3	X4	Y4	Z4	X5	Y5	Z5	X6	Y6	Z6	X7	Y7	Z7	X8	Y8	Z8	X9	Y9	Z9	X10	Y10	Z10	X11	Y11	Z11	X12	Y12	Z12	X13	Y13	Z13	X14	Y14	Z14	X15	Y15	Z15	X16	Y16	Z16	X17	Y17	Z17	X18	Y18	Z18	X19	Y19	Z19	X20	Y20	Z20	X21	Y21	Z21	X22	Y22	Z22	X23	Y23	Z23	X24	Y24	Z24	X25	Y25	Z25	X26	Y26	Z26	X27	Y27	Z27	X28	Y28	Z28	X29	Y29	Z29	X30	Y30	Z30	X31	Y31	Z31	X32	Y32	Z32	X33	Y33	Z33	X34	Y34	Z34	X35	Y35	Z35	X36	Y36	Z36	X37	Y37	Z37	X38	Y38	Z38	X39	Y39	Z39	X40	Y40	Z40	X41	Y41	Z41	X42	Y42	Z42	

174	  1.450000	744.978058	954.592607	-495.676877	721.245043	971.384547	-257.060742	568.875078	980.828151	-433.468222	559.746305	984.671309	-346.747027	729.160698	797.741572	-212.253681	834.776758	714.716224	-247.022069	806.847344	570.931153	-253.643039	699.652191	800.864252	-541.319862	738.371395	685.631596	-534.796201	658.203328	557.717545	-540.393317	872.721862	378.014491	-338.408097	829.236231	318.503044	-288.006820	812.933595	209.835960	-366.355209	532.801361	436.872917	-466.918201	439.948090	507.209621	-514.593162	362.031743	518.657510	-441.922771	664.965433	100.416749	-369.393244	884.698954	 69.211122	-377.481209	850.301427	 64.434419	-283.722814	288.778079	658.498529	-439.348761	208.197801	456.409253	-431.970366	182.658518	494.262992	-513.713153	765.127233	1412.281219	-552.364719	680.712605	1410.042815	-188.251112	811.763750	1367.131335	-321.901305	694.947435	1462.413990	-377.650705	624.931918	1326.367112	-116.708979	625.420400	1258.413021	-100.814970	520.487042	1272.776942	-90.603019	515.343876	1200.695912	-31.311465	481.516425	1167.495650	-107.430201	730.548578	1352.393671	-615.611780	650.415539	1313.119868	-622.807366	704.932567	1271.556043	-665.310115	661.598813	1180.299870	-721.210572	589.283261	1158.173129	-670.691626	591.690631	1165.371661	-22.796401	745.277048	1097.658994	-60.367020	699.982876	1046.385113	-45.350992	723.088362	1154.143943	-691.883873	813.222120	1098.275933	-544.106812	797.233882	1043.804672	-581.588217	
175	  1.458333	743.259432	948.444229	-494.630365	720.170677	967.317573	-255.369992	566.337404	977.249884	-434.909456	557.124622	982.564864	-348.356815	725.091179	795.137159	-211.984661	829.806297	710.246651	-247.485466	799.025271	566.669458	-254.091870	704.382528	797.130999	-540.762369	747.108999	684.365694	-535.531090	674.303591	552.334641	-540.059972	856.827885	372.801709	-338.794491	809.054972	315.997432	-287.931281	788.280214	207.920988	-366.615188	556.778366	435.646955	-466.522857	464.649411	505.318001	-516.230147	387.013203	519.224600	-443.174739	633.200251	101.152227	-369.937342	852.311990	 68.077745	-376.698793	817.949584	 64.385719	-283.956112	313.230934	660.426821	-443.273502	234.182089	457.753849	-433.649529	211.704175	493.392365	-517.547306	762.228901	1407.729671	-553.256766	682.187507	1404.460250	-185.457004	813.853804	1360.278360	-322.796424	695.252550	1458.917404	-375.636566	629.265464	1315.826722	-115.554658	632.240936	1247.728101	-100.655359	527.430119	1258.914274	-87.136523	527.830383	1186.653143	-28.671212	492.833251	1151.329076	-102.989545	725.272827	1347.334708	-615.127194	644.199018	1308.775346	-618.175932	696.657680	1266.836056	-662.810014	650.222604	1176.309483	-717.432771	580.032365	1154.579166	-664.727166	606.261350	1155.338117	-24.058463	759.620827	1093.170245	-64.340641	716.942345	1040.423827	-47.525213	711.297939	1146.688600	-689.585159	805.862093	1083.028283	-548.420583	786.503642	1030.599636	-587.919656	
176	  1.466667	741.292271	943.811811	-494.368796	718.505916	965.659829	-252.594344	564.450862	976.448732	-436.118198	555.326489	982.922043	-349.449458	720.970511	793.203770	-212.166318	822.305508	704.005867	-247.675241	786.744604	561.243795	-254.997879	708.289701	795.401371	-540.528829	756.567917	684.832799	-535.867545	692.153715	549.586623	-539.819492	838.341255	365.844731	-338.178219	785.771575	310.981148	-287.063377	761.454938	204.147928	-365.545040	582.172335	434.872632	-465.785439	490.761083	502.930089	-517.951780	412.494280	518.026286	-444.664826	601.178285	101.811839	-370.338984	819.712747	 66.552620	-376.203652	785.383499	 63.863438	-284.137997	335.601139	659.695523	-448.541565	261.163212	455.452963	-434.426398	240.783529	487.792892	-520.456215	759.068602	1404.582683	-554.032850	684.116931	1400.054725	-183.101258	815.168267	1355.389358	-323.912623	696.064415	1457.064087	-373.547779	633.712287	1307.584085	-115.180479	639.539326	1239.318212	-101.199056	534.857502	1246.582614	-85.561248	541.646768	1174.307092	-27.332815	504.931791	1136.698657	-99.483508	719.858207	1343.966888	-614.595815	638.156540	1305.630680	-613.127296	688.331700	1264.027155	-660.302073	638.986571	1174.100930	-713.075143	570.681110	1152.471328	-658.426008	621.851611	1147.271505	-26.815219	774.735586	1090.416940	-69.783319	734.603076	1036.411918	-51.149680	699.700631	1141.593291	-686.415259	797.503819	1069.250788	-552.407769	775.050944	1019.464438	-594.181652	
177	  1.475000	739.338405	941.013802	-495.394903	716.474263	965.573872	-249.824247	563.096041	977.229173	-436.733043	554.073610	984.490042	-349.823087	716.191489	791.285656	-212.529262	812.362969	696.409851	-247.174477	770.987273	555.339259	-255.933713	711.254647	795.200700	-540.547539	767.076468	686.947170	-535.500228	711.749937	549.515065	-539.812346	816.990443	357.484328	-337.714270	760.286411	304.085060	-286.661891	732.271603	199.297217	-364.699757	608.254546	434.669755	-464.732843	517.830178	500.224972	-519.631473	437.913972	515.214726	-446.367389	568.403605	102.358980	-370.579226	786.616531	 65.386196	-376.208644	752.183006	 63.305181	-284.160111	355.552697	656.149921	-454.628042	288.742157	449.661004	-434.649625	269.439993	478.070712	-522.518421	755.539506	1402.951949	-554.589320	686.611977	1396.982036	-181.435716	815.747127	1352.716919	-325.135503	696.850953	1456.228468	-371.860348	638.460428	1301.700788	-115.472986	647.321061	1233.531044	-102.217306	542.729178	1236.022806	-86.157522	555.820393	1163.972485	-27.374786	517.661719	1124.199629	-97.556002	714.080894	1342.488868	-614.001509	632.033239	1303.934082	-607.919842	679.662962	1263.219493	-657.895308	627.829844	1173.963216	-708.510529	561.062851	1152.200080	-652.094423	637.404703	1140.899699	-30.382611	790.365682	1089.957035	-76.603711	752.715156	1034.702267	-56.462981	688.425127	1139.310319	-683.039372	788.134317	1057.709460	-556.011573	763.044490	1011.018400	-600.184229	
178	  1.483333	737.547385	940.084560	-497.610182	714.552694	966.166333	-248.005382	561.944053	978.386567	-436.489095	553.041424	986.217388	-349.528644	710.205045	789.192508	-212.872309	800.763259	688.768736	-246.087852	753.290629	549.980225	-256.403043	713.419310	796.080657	-540.728161	778.629189	690.969403	-534.291463	732.562474	552.038427	-539.833726	792.954348	349.057692	-337.905308	733.588785	297.021179	-287.018930	701.414956	194.726611	-364.669725	634.550249	435.352604	-463.362264	544.988320	497.339165	-520.977299	462.737053	510.959832	-448.111121	534.943186	102.849521	-370.584441	753.025134	 64.841923	-376.293024	718.393337	 62.963992	-283.924075	373.046133	649.589836	-460.894522	316.634710	440.623814	-434.591370	297.502169	464.851964	-523.841819	751.503539	1402.834509	-554.974565	689.652998	1395.325766	-180.499740	815.933502	1352.002991	-326.422891	697.074274	1455.927786	-370.915775	643.781512	1297.759535	-116.201070	655.550456	1230.086303	-103.503324	551.052950	1227.261516	-88.504450	569.482715	1155.551899	-28.671472	531.034543	1114.130165	-97.698917	707.636166	1342.926872	-613.332888	625.472777	1303.942194	-602.839384	670.326183	1264.373844	-655.629348	616.415141	1175.901966	-704.183905	551.102499	1153.848978	-645.986411	652.151195	1135.851532	-34.161292	806.030933	1092.143977	-84.537921	770.965086	1035.447544	-63.577545	677.096267	1139.577903	-680.277815	778.017704	1049.392214	-559.415835	750.755642	1005.774029	-605.646700	
179	  1.491667	736.029987	940.893441	-500.194158	713.149631	966.942332	-247.261507	560.832804	979.425914	-435.436032	552.128075	987.740722	-348.785188	702.981566	787.259448	-213.172700	788.457244	682.317903	-244.944501	734.817139	545.874287	-256.203474	715.189604	797.928572	-540.999964	790.816592	697.383630	-532.403498	753.696400	557.131011	-539.532021	766.874064	342.026279	-338.474699	706.310276	291.435757	-287.555680	669.832037	191.443838	-365.057158	660.977399	437.262946	-461.698896	571.190573	494.370889	-521.650714	486.623028	505.328045	-449.614208	501.232901	103.418138	-370.396376	719.102101	 64.556398	-375.833402	684.336781	 62.828947	-283.447875	388.302660	639.851691	-466.703531	344.739082	428.591749	-434.463744	325.122320	448.696864	-524.588932	746.865824	1404.150647	-555.323659	693.141264	1395.057694	-180.138826	816.127439	1352.739994	-327.886742	696.611874	1456.131101	-370.670608	649.866225	1295.215654	-117.141733	664.165542	1228.317394	-104.965759	559.851101	1220.236610	-91.652902	582.321245	1148.739673	-30.955365	545.011007	1106.510023	-99.935130	700.366605	1345.166853	-612.591617	618.264938	1305.823110	-598.125126	660.215314	1267.360426	-653.535875	604.334819	1179.660670	-700.419475	540.897475	1157.306899	-640.236772	665.935717	1132.021348	-37.960724	821.158613	1097.019912	-93.290721	788.996473	1038.624230	-72.362312	665.142818	1141.736773	-678.731230	767.646643	1045.212425	-562.925027	738.484860	1004.020504	-610.278453	
180	  1.500000	734.978253	943.297575	-502.021936	712.394608	967.838872	-247.058073	559.927683	980.660771	-433.964264	551.432150	989.321185	-347.839925	695.017473	786.034580	-213.488717	776.037649	677.558729	-244.319547	715.973405	543.226129	-255.527134	717.123106	800.971643	-541.283715	802.921220	706.495203	-530.242373	774.250142	564.787305	-538.717555	739.538278	337.191654	-338.817471	678.546974	288.127353	-287.633782	638.179331	189.786171	-365.222523	687.568201	440.509604	-459.856849	595.652504	491.354285	-521.468079	509.552429	498.256627	-450.596912	467.691992	104.253197	-370.186313	684.984575	 64.032185	-374.500397	650.304320	 62.779225	-282.864335	401.757372	626.865035	-471.497296	373.189390	413.790517	-434.481143	352.750237	430.135880	-525.019095	741.652041	1406.789179	-555.732953	697.031597	1396.054997	-180.107666	816.582553	1354.514309	-329.747549	695.829296	1457.180936	-370.719049	656.748470	1293.724313	-118.181551	673.119564	1227.611434	-106.646495	569.144044	1214.909244	-94.584811	594.641098	1143.319033	-33.918018	559.323753	1101.180876	-103.734515	692.410770	1349.015183	-611.791210	610.516726	1309.562265	-593.939414	649.543219	1271.976789	-651.673575	591.435477	1184.888369	-697.305239	530.666522	1162.409848	-634.886521	679.112340	1129.639913	-42.021155	835.282204	1104.325614	-102.672122	806.475338	1044.087249	-82.449146	652.312007	1145.330018	-678.472580	757.554320	1045.606148	-566.770274	726.497194	1005.735957	-613.893357	
181	  1.508333	734.670227	947.190508	-502.383498	712.201605	969.013792	-246.857908	559.575995	982.742869	-432.587953	551.115372	991.444309	-346.886680	686.991295	785.892780	-213.857970	763.565534	674.287731	-244.520962	696.603952	541.977480	-254.793652	719.712360	805.537927	-541.461825	814.183798	718.066908	-528.216227	793.614666	574.848363	-537.506191	711.549044	334.545338	-338.534363	650.043810	287.031397	-287.149308	606.704579	189.615632	-364.886883	714.051195	444.846752	-457.998955	618.201115	488.243728	-520.518960	531.775505	489.688984	-450.922747	434.509721	105.622938	-370.086294	650.739958	 63.102321	-372.443350	616.406685	 62.732408	-282.342158	413.987593	610.670541	-474.833152	402.344220	396.476682	-434.878882	381.014626	409.747810	-525.465769	736.025869	1410.634308	-556.188724	701.398988	1398.160333	-180.180444	817.353270	1357.178539	-332.202795	695.259811	1459.449588	-370.589438	664.355073	1293.222028	-119.318851	682.411973	1227.699904	-108.662772	578.956027	1211.288032	-96.621401	607.031327	1139.311796	-37.279050	573.499700	1097.914909	-108.246713	684.152014	1354.258748	-610.943707	602.612179	1314.962041	-590.350560	638.741564	1277.988919	-650.098909	578.025382	1191.358540	-694.720125	520.651329	1169.031303	-629.968115	692.158844	1129.057370	-46.738635	848.169439	1113.612717	-112.632857	823.150079	1051.610022	-93.374173	638.944135	1150.428819	-679.030608	748.100601	1050.297093	-570.986359	715.003462	1010.584933	-616.501805	
